<svg xmlns="http://www.w3.org/2000/svg" viewBox="0 0 1200 1500" role="img" aria-label="SAFRA Mira Chain studio artwork">
<defs>
  <linearGradient id="bg" x1="0" y1="0" x2="1" y2="1"><stop stop-color="#efe7db"/><stop offset="1" stop-color="#d6c4b0"/></linearGradient>
  <linearGradient id="gold" x1="0" y1="0" x2="1" y2="1"><stop stop-color="#76501d"/><stop offset=".3" stop-color="#f0d488"/><stop offset=".57" stop-color="#af7a31"/><stop offset=".82" stop-color="#f7e2a4"/><stop offset="1" stop-color="#7b5323"/></linearGradient>
  <filter id="shadow"><feDropShadow dx="0" dy="24" stdDeviation="20" flood-color="#6f4a20" flood-opacity=".22"/></filter>
</defs>
<rect width="1200" height="1500" fill="url(#bg)"/>
<path d="M190 1200 C430 1090 745 1080 1010 1195" fill="none" stroke="#b3a08a" stroke-width="3" opacity=".6"/>
<g filter="url(#shadow)" fill="none" stroke="url(#gold)" stroke-width="26" stroke-linecap="round">
  <path d="M310 430 C235 622 252 842 403 1015 C492 1116 598 1165 602 1166"/>
  <path d="M890 430 C965 622 948 842 797 1015 C708 1116 602 1165 598 1166"/>
</g>
<g fill="none" stroke="url(#gold)" stroke-width="15">
  <ellipse cx="336" cy="490" rx="31" ry="46" transform="rotate(-25 336 490)"/>
  <ellipse cx="286" cy="598" rx="31" ry="46" transform="rotate(-16 286 598)"/>
  <ellipse cx="270" cy="720" rx="31" ry="46" transform="rotate(-7 270 720)"/>
  <ellipse cx="303" cy="846" rx="31" ry="46" transform="rotate(7 303 846)"/>
  <ellipse cx="367" cy="952" rx="31" ry="46" transform="rotate(18 367 952)"/>
  <ellipse cx="864" cy="490" rx="31" ry="46" transform="rotate(25 864 490)"/>
  <ellipse cx="914" cy="598" rx="31" ry="46" transform="rotate(16 914 598)"/>
  <ellipse cx="930" cy="720" rx="31" ry="46" transform="rotate(7 930 720)"/>
  <ellipse cx="897" cy="846" rx="31" ry="46" transform="rotate(-7 897 846)"/>
  <ellipse cx="833" cy="952" rx="31" ry="46" transform="rotate(-18 833 952)"/>
</g>
<circle cx="600" cy="1164" r="34" fill="url(#gold)"/>
</svg>